<svg xmlns="http://www.w3.org/2000/svg" viewBox="0 0 260 220" width="260" height="220">
  <defs><marker id="a" markerWidth="7" markerHeight="7" refX="6" refY="3.5" orient="auto-start-reverse"><path d="M0,0 L7,3.5 L0,7 z" fill="#64748b"/></marker></defs>
  <path d="M78,44 H86 A6,6 0 0 1 92,50 V147 A11,11 0 0 0 103,158 H168 A6,6 0 0 1 174,164 V166 A6,6 0 0 1 168,172 H78 Z" fill="#cbd5e1" fill-rule="evenodd" opacity=".55"/>
  <path d="M78,44 H86 A6,6 0 0 1 92,50 V147 A11,11 0 0 0 103,158 H168 A6,6 0 0 1 174,164 V166 A6,6 0 0 1 168,172 H78 Z" fill="none" stroke="#0f172a" stroke-width="1.6" stroke-linejoin="round" fill-rule="evenodd"/>
  <line x1="78" y1="194" x2="174" y2="194" stroke="#64748b" stroke-width="1" marker-start="url(#a)" marker-end="url(#a)"/>
  <rect x="115" y="186" width="22" height="16" fill="#f8fafc"/>
  <text x="126" y="198" font-family="Arial" font-size="12" font-weight="700" fill="#0f172a" text-anchor="middle">B</text>
  <line x1="58" y1="44" x2="58" y2="172" stroke="#64748b" stroke-width="1" marker-start="url(#a)" marker-end="url(#a)"/>
  <rect x="47" y="100" width="22" height="16" fill="#f8fafc"/>
  <text x="58" y="112" font-family="Arial" font-size="12" font-weight="700" fill="#0f172a" text-anchor="middle">A</text>
  <line x1="85" y1="70" x2="40" y2="52" stroke="#64748b" stroke-width="1"/>
  <text x="37" y="55" font-family="Arial" font-size="12" font-weight="700" fill="#0f172a" text-anchor="end">t</text>
  <line x1="147.12" y1="165" x2="222" y2="158" stroke="#64748b" stroke-width="1"/>
  <text x="225" y="161" font-family="Arial" font-size="12" font-weight="700" fill="#0f172a" text-anchor="start">t</text>
  <line x1="95.3" y1="154.7" x2="210" y2="120" stroke="#64748b" stroke-width="1"/>
  <text x="213" y="123" font-family="Arial" font-size="12" font-weight="700" fill="#0f172a" text-anchor="start">r1</text>
  <line x1="89.6" y1="46.4" x2="150" y2="40" stroke="#64748b" stroke-width="1"/>
  <text x="153" y="43" font-family="Arial" font-size="12" font-weight="700" fill="#0f172a" text-anchor="start">r2</text>
  <text x="130" y="212" font-family="Arial" font-size="10.5" fill="#64748b" text-anchor="middle">Unequal Angle · A × B, thickness t, fillets r1 / r2</text>
</svg>
